{"title":"Backroom Casting Couch - Anna","uid":10806835,"size":383709612,"categoryP":"porn","categoryS":"movie_clips","magnet":"?xt=urn:btih:e4ae33622da12afc7bd4f9eccfaa4da55dc6e279&amp;dn=Backroom+Casting+Couch+-+Anna&amp;tr=udp%3A%2F%2Ftracker.openbittorrent.com%3A80&amp;tr=udp%3A%2F%2Fopen.demonii.com%3A1337&amp;tr=udp%3A%2F%2Ftracker.coppersurfer.tk%3A6969&amp;tr=udp%3A%2F%2Fexodus.desync.com%3A6969","seeders":1,"leechers":1,"uploader":"ThousandPeers","files":-1,"time":1408388954,"description":"Format                                   : Windows Media\nFile size                                : 366 MiB\nDuration                                 : 25mn 50s\nOverall bit rate mode                    : Variable\nOverall bit rate                         : 1 979 Kbps\nMaximum Overall bit rate                 : 5 974 Kbps\nMovie name                               : Anna\nEncoded date                             : UTC 2013-04-24 08:07:17.533\nCopyright                                : BackroomCastingCouch.com. All rights reserved.\n\nVideo\nID                                       : 2\nFormat                                   : VC-1\nFormat profile                           : MP@HL\nCodec ID                                 : WMV3\nCodec ID/Info                            : Windows Media Video 9\nCodec ID/Hint                            : WMV3\nDescription of the codec                 : Windows Media Video 9 - Professional\nDuration                                 : 25mn 50s\nBit rate mode                            : Variable\nBit rate                                 : 1 854 Kbps\nWidth                                    : 768 pixels\nHeight                                   : 432 pixels\nDisplay aspect ratio                     : 16:9\nFrame rate                               : 29.970 fps\nBit depth                                : 8 bits\nCompression mode                         : Lossy\nBits/(Pixel*Frame)                       : 0.186\nStream size                              : 343 MiB (94%)\nLanguage                                 : English (US)\nNumberOfFrames                           : 46461\n\nAudio\nID                                       : 1\nFormat                                   : WMA\nFormat version                           : Version 2\nCodec ID                                 : 161\nCodec ID/Info                            : Windows Media Audio\nDescription of the codec                 : Windows Media Audio 9.2 -  96 kbps, 48 kHz, stereo 2-pass VBR\nDuration                                 : 25mn 50s\nBit rate mode                            : Variable\nBit rate                                 : 96.8 Kbps\nChannel(s)                               : 2 channels\nSampling rate                            : 48.0 KHz\nBit depth                                : 16 bits\nStream size                              : 17.9 MiB (5%)\nLanguage                                 : English (US)\nNumberOfFrames                           : 4581\n","torrent":{"xt":"urn:btih:e4ae33622da12afc7bd4f9eccfaa4da55dc6e279","amp;dn":"Backroom+Casting+Couch+-+Anna","amp;tr":["udp%3A%2F%2Ftracker.openbittorrent.com%3A80","udp%3A%2F%2Fopen.demonii.com%3A1337","udp%3A%2F%2Ftracker.coppersurfer.tk%3A6969","udp%3A%2F%2Fexodus.desync.com%3A6969"],"infoHash":"e4ae33622da12afc7bd4f9eccfaa4da55dc6e279","infoHashBuffer":{"type":"Buffer","data":[228,174,51,98,45,161,42,252,123,212,249,236,207,170,77,165,93,198,226,121]},"announce":[],"urlList":[]}}